<svg xmlns="http://www.w3.org/2000/svg" fill="none" viewBox="0 0 32 32" height="1024" width="1024">
<circle fill="url(#paint0_radial_18_17387)" r="1.55078" cy="22.2509" cx="5.37891"></circle>
<circle fill="url(#paint1_radial_18_17387)" r="1.55078" cy="22.2626" cx="26.6328"></circle>
<circle fill="url(#paint2_radial_18_17387)" r="1.55078" cy="22.2626" cx="26.6328"></circle>
<path fill="url(#paint3_radial_18_17387)" d="M9.00781 12.0829C8.40781 12.9829 7.97135 14.2079 7.82031 14.6766L10.1641 16.3641L11.9531 14.0985C11.7422 13.773 11.2406 13.0477 10.9531 12.6727C10.6656 12.2977 10.2318 11.8394 10.0547 11.6571L9.00781 12.0829Z"></path>
<path fill="url(#paint4_radial_18_17387)" d="M9.00781 12.0829C8.40781 12.9829 7.97135 14.2079 7.82031 14.6766L10.1641 16.3641L11.9531 14.0985C11.7422 13.773 11.2406 13.0477 10.9531 12.6727C10.6656 12.2977 10.2318 11.8394 10.0547 11.6571L9.00781 12.0829Z"></path>
<path fill="url(#paint5_radial_18_17387)" d="M22.9922 12.0829C23.5922 12.9829 24.0286 14.2079 24.1797 14.6766L21.8359 16.3641L20.0469 14.0985C20.2578 13.773 20.7594 13.0477 21.0469 12.6727C21.3344 12.2977 21.7682 11.8394 21.9453 11.6571L22.9922 12.0829Z"></path>
<path fill="url(#paint6_radial_18_17387)" d="M22.9922 12.0829C23.5922 12.9829 24.0286 14.2079 24.1797 14.6766L21.8359 16.3641L20.0469 14.0985C20.2578 13.773 20.7594 13.0477 21.0469 12.6727C21.3344 12.2977 21.7682 11.8394 21.9453 11.6571L22.9922 12.0829Z"></path>
<path fill="url(#paint7_radial_18_17387)" d="M22.9922 12.0829C23.5922 12.9829 24.0286 14.2079 24.1797 14.6766L21.8359 16.3641L20.0469 14.0985C20.2578 13.773 20.7594 13.0477 21.0469 12.6727C21.3344 12.2977 21.7682 11.8394 21.9453 11.6571L22.9922 12.0829Z"></path>
<g filter="url(#filter0_ii_18_17387)">
<path fill="url(#paint8_linear_18_17387)" d="M3.125 12.1532L6.23123 27.3119C6.38376 28.0563 7.03881 28.5907 7.79866 28.5907H24.2013C24.9612 28.5907 25.6162 28.0563 25.7688 27.3119L28.875 12.1532L27.8834 11.6688C26.3986 12.7469 23.2914 14.9579 22.4887 15.4423C21.8486 15.8285 21.2607 15.199 21.139 15.0204C20.0215 13.3798 18.3172 10.9919 17.6797 10.1532C17.0265 9.29382 16.2886 8.86934 16 8.83289C15.7114 8.86934 14.9735 9.29382 14.3203 10.1532C13.6828 10.9919 11.9785 13.3798 10.861 15.0204C10.7393 15.199 10.1514 15.8285 9.51135 15.4423C8.70863 14.9579 5.60137 12.7469 4.1166 11.6688L3.125 12.1532Z"></path>
<path fill="url(#paint9_radial_18_17387)" d="M3.125 12.1532L6.23123 27.3119C6.38376 28.0563 7.03881 28.5907 7.79866 28.5907H24.2013C24.9612 28.5907 25.6162 28.0563 25.7688 27.3119L28.875 12.1532L27.8834 11.6688C26.3986 12.7469 23.2914 14.9579 22.4887 15.4423C21.8486 15.8285 21.2607 15.199 21.139 15.0204C20.0215 13.3798 18.3172 10.9919 17.6797 10.1532C17.0265 9.29382 16.2886 8.86934 16 8.83289C15.7114 8.86934 14.9735 9.29382 14.3203 10.1532C13.6828 10.9919 11.9785 13.3798 10.861 15.0204C10.7393 15.199 10.1514 15.8285 9.51135 15.4423C8.70863 14.9579 5.60137 12.7469 4.1166 11.6688L3.125 12.1532Z"></path>
</g>
<path fill="url(#paint10_linear_18_17387)" d="M3.125 12.1532L6.23123 27.3119C6.38376 28.0563 7.03881 28.5907 7.79866 28.5907H24.2013C24.9612 28.5907 25.6162 28.0563 25.7688 27.3119L28.875 12.1532L27.8834 11.6688C26.3986 12.7469 23.2914 14.9579 22.4887 15.4423C21.8486 15.8285 21.2607 15.199 21.139 15.0204C20.0215 13.3798 18.3172 10.9919 17.6797 10.1532C17.0265 9.29382 16.2886 8.86934 16 8.83289C15.7114 8.86934 14.9735 9.29382 14.3203 10.1532C13.6828 10.9919 11.9785 13.3798 10.861 15.0204C10.7393 15.199 10.1514 15.8285 9.51135 15.4423C8.70863 14.9579 5.60137 12.7469 4.1166 11.6688L3.125 12.1532Z"></path>
<path fill="url(#paint11_linear_18_17387)" d="M3.125 12.1532L6.23123 27.3119C6.38376 28.0563 7.03881 28.5907 7.79866 28.5907H24.2013C24.9612 28.5907 25.6162 28.0563 25.7688 27.3119L28.875 12.1532L27.8834 11.6688C26.3986 12.7469 23.2914 14.9579 22.4887 15.4423C21.8486 15.8285 21.2607 15.199 21.139 15.0204C20.0215 13.3798 18.3172 10.9919 17.6797 10.1532C17.0265 9.29382 16.2886 8.86934 16 8.83289C15.7114 8.86934 14.9735 9.29382 14.3203 10.1532C13.6828 10.9919 11.9785 13.3798 10.861 15.0204C10.7393 15.199 10.1514 15.8285 9.51135 15.4423C8.70863 14.9579 5.60137 12.7469 4.1166 11.6688L3.125 12.1532Z"></path>
<path fill="url(#paint12_linear_18_17387)" d="M3.125 12.1532L6.23123 27.3119C6.38376 28.0563 7.03881 28.5907 7.79866 28.5907H24.2013C24.9612 28.5907 25.6162 28.0563 25.7688 27.3119L28.875 12.1532L27.8834 11.6688C26.3986 12.7469 23.2914 14.9579 22.4887 15.4423C21.8486 15.8285 21.2607 15.199 21.139 15.0204C20.0215 13.3798 18.3172 10.9919 17.6797 10.1532C17.0265 9.29382 16.2886 8.86934 16 8.83289C15.7114 8.86934 14.9735 9.29382 14.3203 10.1532C13.6828 10.9919 11.9785 13.3798 10.861 15.0204C10.7393 15.199 10.1514 15.8285 9.51135 15.4423C8.70863 14.9579 5.60137 12.7469 4.1166 11.6688L3.125 12.1532Z"></path>
<path fill="url(#paint13_radial_18_17387)" d="M3.125 12.1532L6.23123 27.3119C6.38376 28.0563 7.03881 28.5907 7.79866 28.5907H24.2013C24.9612 28.5907 25.6162 28.0563 25.7688 27.3119L28.875 12.1532L27.8834 11.6688C26.3986 12.7469 23.2914 14.9579 22.4887 15.4423C21.8486 15.8285 21.2607 15.199 21.139 15.0204C20.0215 13.3798 18.3172 10.9919 17.6797 10.1532C17.0265 9.29382 16.2886 8.86934 16 8.83289C15.7114 8.86934 14.9735 9.29382 14.3203 10.1532C13.6828 10.9919 11.9785 13.3798 10.861 15.0204C10.7393 15.199 10.1514 15.8285 9.51135 15.4423C8.70863 14.9579 5.60137 12.7469 4.1166 11.6688L3.125 12.1532Z"></path>
<path fill="url(#paint14_radial_18_17387)" d="M3.125 12.1532L6.23123 27.3119C6.38376 28.0563 7.03881 28.5907 7.79866 28.5907H24.2013C24.9612 28.5907 25.6162 28.0563 25.7688 27.3119L28.875 12.1532L27.8834 11.6688C26.3986 12.7469 23.2914 14.9579 22.4887 15.4423C21.8486 15.8285 21.2607 15.199 21.139 15.0204C20.0215 13.3798 18.3172 10.9919 17.6797 10.1532C17.0265 9.29382 16.2886 8.86934 16 8.83289C15.7114 8.86934 14.9735 9.29382 14.3203 10.1532C13.6828 10.9919 11.9785 13.3798 10.861 15.0204C10.7393 15.199 10.1514 15.8285 9.51135 15.4423C8.70863 14.9579 5.60137 12.7469 4.1166 11.6688L3.125 12.1532Z"></path>
<path fill="url(#paint15_radial_18_17387)" d="M3.125 12.1532L6.23123 27.3119C6.38376 28.0563 7.03881 28.5907 7.79866 28.5907H24.2013C24.9612 28.5907 25.6162 28.0563 25.7688 27.3119L28.875 12.1532L27.8834 11.6688C26.3986 12.7469 23.2914 14.9579 22.4887 15.4423C21.8486 15.8285 21.2607 15.199 21.139 15.0204C20.0215 13.3798 18.3172 10.9919 17.6797 10.1532C17.0265 9.29382 16.2886 8.86934 16 8.83289C15.7114 8.86934 14.9735 9.29382 14.3203 10.1532C13.6828 10.9919 11.9785 13.3798 10.861 15.0204C10.7393 15.199 10.1514 15.8285 9.51135 15.4423C8.70863 14.9579 5.60137 12.7469 4.1166 11.6688L3.125 12.1532Z"></path>
<g filter="url(#filter1_di_18_17387)">
<path fill="url(#paint16_radial_18_17387)" d="M23.7793 22.7426C23.5142 23.557 22.662 23.9652 21.8476 23.7001C21.2344 23.4501 20.9692 22.7489 21.2344 21.9345C21.4995 21.1201 22.3344 20.6528 22.8398 20.8173C23.6542 21.0824 24.0445 21.9282 23.7793 22.7426Z"></path>
<path fill="url(#paint17_radial_18_17387)" d="M23.7793 22.7426C23.5142 23.557 22.662 23.9652 21.8476 23.7001C21.2344 23.4501 20.9692 22.7489 21.2344 21.9345C21.4995 21.1201 22.3344 20.6528 22.8398 20.8173C23.6542 21.0824 24.0445 21.9282 23.7793 22.7426Z"></path>
</g>
<g filter="url(#filter2_di_18_17387)">
<path fill="url(#paint18_radial_18_17387)" d="M8.29708 22.7426C8.5622 23.557 9.41437 23.9652 10.2288 23.7001C10.8421 23.4501 11.1072 22.7489 10.8421 21.9345C10.5769 21.1201 9.74202 20.6528 9.23659 20.8173C8.42219 21.0824 8.03196 21.9282 8.29708 22.7426Z"></path>
<path fill="url(#paint19_radial_18_17387)" d="M8.29708 22.7426C8.5622 23.557 9.41437 23.9652 10.2288 23.7001C10.8421 23.4501 11.1072 22.7489 10.8421 21.9345C10.5769 21.1201 9.74202 20.6528 9.23659 20.8173C8.42219 21.0824 8.03196 21.9282 8.29708 22.7426Z"></path>
</g>
<path fill="url(#paint20_radial_18_17387)" d="M4.92187 11.9247C4.92187 12.6927 4.29927 13.3153 3.53125 13.3153C2.76323 13.3153 2.14062 12.6927 2.14062 11.9247C2.14062 11.1567 2.76323 10.5341 3.53125 10.5341C4.29927 10.5341 4.92187 11.1567 4.92187 11.9247Z"></path>
<path fill="url(#paint21_radial_18_17387)" d="M4.92187 11.9247C4.92187 12.6927 4.29927 13.3153 3.53125 13.3153C2.76323 13.3153 2.14062 12.6927 2.14062 11.9247C2.14062 11.1567 2.76323 10.5341 3.53125 10.5341C4.29927 10.5341 4.92187 11.1567 4.92187 11.9247Z"></path>
<path fill="url(#paint22_radial_18_17387)" d="M4.92187 11.9247C4.92187 12.6927 4.29927 13.3153 3.53125 13.3153C2.76323 13.3153 2.14062 12.6927 2.14062 11.9247C2.14062 11.1567 2.76323 10.5341 3.53125 10.5341C4.29927 10.5341 4.92187 11.1567 4.92187 11.9247Z"></path>
<path fill="url(#paint23_radial_18_17387)" d="M4.92187 11.9247C4.92187 12.6927 4.29927 13.3153 3.53125 13.3153C2.76323 13.3153 2.14062 12.6927 2.14062 11.9247C2.14062 11.1567 2.76323 10.5341 3.53125 10.5341C4.29927 10.5341 4.92187 11.1567 4.92187 11.9247Z"></path>
<path fill="url(#paint24_radial_18_17387)" d="M10.2807 12.1797C10.6924 11.9383 10.9688 11.4911 10.9688 10.9794C10.9688 10.2113 10.3461 9.58875 9.57812 9.58875C8.8101 9.58875 8.1875 10.2113 8.1875 10.9794C8.1875 11.5115 8.48637 11.9738 8.9254 12.2076C9.01248 12.173 9.17138 12.1388 9.34375 12.1884C9.55805 12.2501 9.91001 12.3279 10.2807 12.1797Z"></path>
<path fill="url(#paint25_radial_18_17387)" d="M10.2807 12.1797C10.6924 11.9383 10.9688 11.4911 10.9688 10.9794C10.9688 10.2113 10.3461 9.58875 9.57812 9.58875C8.8101 9.58875 8.1875 10.2113 8.1875 10.9794C8.1875 11.5115 8.48637 11.9738 8.9254 12.2076C9.01248 12.173 9.17138 12.1388 9.34375 12.1884C9.55805 12.2501 9.91001 12.3279 10.2807 12.1797Z"></path>
<path fill="url(#paint26_radial_18_17387)" d="M10.2807 12.1797C10.6924 11.9383 10.9688 11.4911 10.9688 10.9794C10.9688 10.2113 10.3461 9.58875 9.57812 9.58875C8.8101 9.58875 8.1875 10.2113 8.1875 10.9794C8.1875 11.5115 8.48637 11.9738 8.9254 12.2076C9.01248 12.173 9.17138 12.1388 9.34375 12.1884C9.55805 12.2501 9.91001 12.3279 10.2807 12.1797Z"></path>
<path fill="url(#paint27_radial_18_17387)" d="M10.2807 12.1797C10.6924 11.9383 10.9688 11.4911 10.9688 10.9794C10.9688 10.2113 10.3461 9.58875 9.57812 9.58875C8.8101 9.58875 8.1875 10.2113 8.1875 10.9794C8.1875 11.5115 8.48637 11.9738 8.9254 12.2076C9.01248 12.173 9.17138 12.1388 9.34375 12.1884C9.55805 12.2501 9.91001 12.3279 10.2807 12.1797Z"></path>
<g filter="url(#filter3_i_18_17387)">
<path fill="url(#paint28_radial_18_17387)" d="M21.7193 12.1797C21.3076 11.9383 21.0312 11.4911 21.0312 10.9794C21.0312 10.2113 21.6539 9.58875 22.4219 9.58875C23.1899 9.58875 23.8125 10.2113 23.8125 10.9794C23.8125 11.5115 23.5136 11.9738 23.0746 12.2076C22.9875 12.173 22.8286 12.1388 22.6563 12.1884C22.4419 12.2501 22.09 12.3279 21.7193 12.1797Z"></path>
<path fill="url(#paint29_radial_18_17387)" d="M21.7193 12.1797C21.3076 11.9383 21.0312 11.4911 21.0312 10.9794C21.0312 10.2113 21.6539 9.58875 22.4219 9.58875C23.1899 9.58875 23.8125 10.2113 23.8125 10.9794C23.8125 11.5115 23.5136 11.9738 23.0746 12.2076C22.9875 12.173 22.8286 12.1388 22.6563 12.1884C22.4419 12.2501 22.09 12.3279 21.7193 12.1797Z"></path>
</g>
<g filter="url(#filter4_di_18_17387)">
<circle fill="url(#paint30_radial_18_17387)" r="2.46791" cy="22.3259" cx="16.0382"></circle>
</g>
<g filter="url(#filter5_f_18_17387)">
<path stroke-width="0.15" stroke="url(#paint31_linear_18_17387)" d="M16.2109 9.35514C16.3828 9.3343 16.8234 9.42389 17.2109 9.94889C17.5984 10.4739 19.9557 13.8343 21.0859 15.4489C21.3047 15.7874 21.9516 16.3208 22.7891 15.7458C23.6266 15.1708 26.3203 13.2209 27.3359 12.5438"></path>
<path stroke-width="0.15" stroke="url(#paint32_radial_18_17387)" d="M16.2109 9.35514C16.3828 9.3343 16.8234 9.42389 17.2109 9.94889C17.5984 10.4739 19.9557 13.8343 21.0859 15.4489C21.3047 15.7874 21.9516 16.3208 22.7891 15.7458C23.6266 15.1708 26.3203 13.2209 27.3359 12.5438"></path>
</g>
<circle fill="url(#paint33_radial_18_17387)" r="1.80078" cy="7.64539" cx="15.9961"></circle>
<circle fill="url(#paint34_radial_18_17387)" r="1.80078" cy="7.64539" cx="15.9961"></circle>
<circle fill="url(#paint35_radial_18_17387)" r="1.80078" cy="7.64539" cx="15.9961"></circle>
<circle fill="url(#paint36_radial_18_17387)" r="1.80078" cy="7.64539" cx="15.9961"></circle>
<path fill="url(#paint37_radial_18_17387)" d="M29.9219 11.9247C29.9219 12.6927 29.2993 13.3153 28.5312 13.3153C27.7632 13.3153 27.1406 12.6927 27.1406 11.9247C27.1406 11.1567 27.7632 10.5341 28.5312 10.5341C29.2993 10.5341 29.9219 11.1567 29.9219 11.9247Z"></path>
<path fill="url(#paint38_radial_18_17387)" d="M29.9219 11.9247C29.9219 12.6927 29.2993 13.3153 28.5312 13.3153C27.7632 13.3153 27.1406 12.6927 27.1406 11.9247C27.1406 11.1567 27.7632 10.5341 28.5312 10.5341C29.2993 10.5341 29.9219 11.1567 29.9219 11.9247Z"></path>
<path fill="url(#paint39_radial_18_17387)" d="M29.9219 11.9247C29.9219 12.6927 29.2993 13.3153 28.5312 13.3153C27.7632 13.3153 27.1406 12.6927 27.1406 11.9247C27.1406 11.1567 27.7632 10.5341 28.5312 10.5341C29.2993 10.5341 29.9219 11.1567 29.9219 11.9247Z"></path>
<path fill="url(#paint40_radial_18_17387)" d="M29.9219 11.9247C29.9219 12.6927 29.2993 13.3153 28.5312 13.3153C27.7632 13.3153 27.1406 12.6927 27.1406 11.9247C27.1406 11.1567 27.7632 10.5341 28.5312 10.5341C29.2993 10.5341 29.9219 11.1567 29.9219 11.9247Z"></path>
<defs>
<filter color-interpolation-filters="sRGB" filterUnits="userSpaceOnUse" height="19.8578" width="26.55" y="8.73289" x="2.725" id="filter0_ii_18_17387">
<feFlood result="BackgroundImageFix" flood-opacity="0"></feFlood>
<feBlend result="shape" in2="BackgroundImageFix" in="SourceGraphic" mode="normal"></feBlend>
<feColorMatrix result="hardAlpha" values="0 0 0 0 0 0 0 0 0 0 0 0 0 0 0 0 0 0 127 0" type="matrix" in="SourceAlpha"></feColorMatrix>
<feOffset dy="-0.1" dx="0.4"></feOffset>
<feGaussianBlur stdDeviation="0.25"></feGaussianBlur>
<feComposite k3="1" k2="-1" operator="arithmetic" in2="hardAlpha"></feComposite>
<feColorMatrix values="0 0 0 0 0.803922 0 0 0 0 0.580392 0 0 0 0 0.262745 0 0 0 1 0" type="matrix"></feColorMatrix>
<feBlend result="effect1_innerShadow_18_17387" in2="shape" mode="normal"></feBlend>
<feColorMatrix result="hardAlpha" values="0 0 0 0 0 0 0 0 0 0 0 0 0 0 0 0 0 0 127 0" type="matrix" in="SourceAlpha"></feColorMatrix>
<feOffset dy="-0.1" dx="-0.4"></feOffset>
<feGaussianBlur stdDeviation="0.25"></feGaussianBlur>
<feComposite k3="1" k2="-1" operator="arithmetic" in2="hardAlpha"></feComposite>
<feColorMatrix values="0 0 0 0 0.894118 0 0 0 0 0.686275 0 0 0 0 0.301961 0 0 0 1 0" type="matrix"></feColorMatrix>
<feBlend result="effect2_innerShadow_18_17387" in2="effect1_innerShadow_18_17387" mode="normal"></feBlend>
</filter>
<filter color-interpolation-filters="sRGB" filterUnits="userSpaceOnUse" height="4.49609" width="4.22998" y="20.2845" x="20.1318" id="filter1_di_18_17387">
<feFlood result="BackgroundImageFix" flood-opacity="0"></feFlood>
<feColorMatrix result="hardAlpha" values="0 0 0 0 0 0 0 0 0 0 0 0 0 0 0 0 0 0 127 0" type="matrix" in="SourceAlpha"></feColorMatrix>
<feOffset dy="0.25" dx="-0.25"></feOffset>
<feGaussianBlur stdDeviation="0.375"></feGaussianBlur>
<feComposite operator="out" in2="hardAlpha"></feComposite>
<feColorMatrix values="0 0 0 0 1 0 0 0 0 0.54902 0 0 0 0 0.305882 0 0 0 1 0" type="matrix"></feColorMatrix>
<feBlend result="effect1_dropShadow_18_17387" in2="BackgroundImageFix" mode="normal"></feBlend>
<feBlend result="shape" in2="effect1_dropShadow_18_17387" in="SourceGraphic" mode="normal"></feBlend>
<feColorMatrix result="hardAlpha" values="0 0 0 0 0 0 0 0 0 0 0 0 0 0 0 0 0 0 127 0" type="matrix" in="SourceAlpha"></feColorMatrix>
<feOffset dy="-0.15" dx="0.15"></feOffset>
<feGaussianBlur stdDeviation="0.25"></feGaussianBlur>
<feComposite k3="1" k2="-1" operator="arithmetic" in2="hardAlpha"></feComposite>
<feColorMatrix values="0 0 0 0 0.984314 0 0 0 0 0.219608 0 0 0 0 0.254902 0 0 0 1 0" type="matrix"></feColorMatrix>
<feBlend result="effect2_innerShadow_18_17387" in2="shape" mode="normal"></feBlend>
</filter>
<filter color-interpolation-filters="sRGB" filterUnits="userSpaceOnUse" height="4.49609" width="4.22998" y="20.2845" x="7.2146" id="filter2_di_18_17387">
<feFlood result="BackgroundImageFix" flood-opacity="0"></feFlood>
<feColorMatrix result="hardAlpha" values="0 0 0 0 0 0 0 0 0 0 0 0 0 0 0 0 0 0 127 0" type="matrix" in="SourceAlpha"></feColorMatrix>
<feOffset dy="0.25" dx="-0.25"></feOffset>
<feGaussianBlur stdDeviation="0.375"></feGaussianBlur>
<feComposite operator="out" in2="hardAlpha"></feComposite>
<feColorMatrix values="0 0 0 0 0.905882 0 0 0 0 0.439216 0 0 0 0 0.278431 0 0 0 1 0" type="matrix"></feColorMatrix>
<feBlend result="effect1_dropShadow_18_17387" in2="BackgroundImageFix" mode="normal"></feBlend>
<feBlend result="shape" in2="effect1_dropShadow_18_17387" in="SourceGraphic" mode="normal"></feBlend>
<feColorMatrix result="hardAlpha" values="0 0 0 0 0 0 0 0 0 0 0 0 0 0 0 0 0 0 127 0" type="matrix" in="SourceAlpha"></feColorMatrix>
<feOffset dy="0.3" dx="0.3"></feOffset>
<feGaussianBlur stdDeviation="0.3"></feGaussianBlur>
<feComposite k3="1" k2="-1" operator="arithmetic" in2="hardAlpha"></feComposite>
<feColorMatrix values="0 0 0 0 0.796078 0 0 0 0 0.141176 0 0 0 0 0.223529 0 0 0 1 0" type="matrix"></feColorMatrix>
<feBlend result="effect2_innerShadow_18_17387" in2="shape" mode="normal"></feBlend>
</filter>
<filter color-interpolation-filters="sRGB" filterUnits="userSpaceOnUse" height="2.67603" width="2.78125" y="9.58875" x="21.0312" id="filter3_i_18_17387">
<feFlood result="BackgroundImageFix" flood-opacity="0"></feFlood>
<feBlend result="shape" in2="BackgroundImageFix" in="SourceGraphic" mode="normal"></feBlend>
<feColorMatrix result="hardAlpha" values="0 0 0 0 0 0 0 0 0 0 0 0 0 0 0 0 0 0 127 0" type="matrix" in="SourceAlpha"></feColorMatrix>
<feOffset></feOffset>
<feGaussianBlur stdDeviation="0.125"></feGaussianBlur>
<feComposite k3="1" k2="-1" operator="arithmetic" in2="hardAlpha"></feComposite>
<feColorMatrix values="0 0 0 0 0.756863 0 0 0 0 0.619608 0 0 0 0 0.321569 0 0 0 1 0" type="matrix"></feColorMatrix>
<feBlend result="effect1_innerShadow_18_17387" in2="shape" mode="normal"></feBlend>
</filter>
<filter color-interpolation-filters="sRGB" filterUnits="userSpaceOnUse" height="7.43579" width="7.43579" y="19.108" x="11.8203" id="filter4_di_18_17387">
<feFlood result="BackgroundImageFix" flood-opacity="0"></feFlood>
<feColorMatrix result="hardAlpha" values="0 0 0 0 0 0 0 0 0 0 0 0 0 0 0 0 0 0 127 0" type="matrix" in="SourceAlpha"></feColorMatrix>
<feOffset dy="0.5" dx="-0.5"></feOffset>
<feGaussianBlur stdDeviation="0.625"></feGaussianBlur>
<feComposite operator="out" in2="hardAlpha"></feComposite>
<feColorMatrix values="0 0 0 0 0.937255 0 0 0 0 0.443137 0 0 0 0 0.376471 0 0 0 1 0" type="matrix"></feColorMatrix>
<feBlend result="effect1_dropShadow_18_17387" in2="BackgroundImageFix" mode="normal"></feBlend>
<feBlend result="shape" in2="effect1_dropShadow_18_17387" in="SourceGraphic" mode="normal"></feBlend>
<feColorMatrix result="hardAlpha" values="0 0 0 0 0 0 0 0 0 0 0 0 0 0 0 0 0 0 127 0" type="matrix" in="SourceAlpha"></feColorMatrix>
<feOffset dy="-0.75" dx="0.75"></feOffset>
<feGaussianBlur stdDeviation="0.75"></feGaussianBlur>
<feComposite k3="1" k2="-1" operator="arithmetic" in2="hardAlpha"></feComposite>
<feColorMatrix values="0 0 0 0 0.313726 0 0 0 0 0.384314 0 0 0 0 1 0 0 0 1 0" type="matrix"></feColorMatrix>
<feBlend result="effect2_innerShadow_18_17387" in2="shape" mode="normal"></feBlend>
</filter>
<filter color-interpolation-filters="sRGB" filterUnits="userSpaceOnUse" height="7.09761" width="11.4755" y="9.1274" x="16.0519" id="filter5_f_18_17387">
<feFlood result="BackgroundImageFix" flood-opacity="0"></feFlood>
<feBlend result="shape" in2="BackgroundImageFix" in="SourceGraphic" mode="normal"></feBlend>
<feGaussianBlur result="effect1_foregroundBlur_18_17387" stdDeviation="0.075"></feGaussianBlur>
</filter>
<radialGradient gradientTransform="translate(5.37891 23.2469) rotate(-103.54) scale(1.75182 2.1567)" gradientUnits="userSpaceOnUse" r="1" cy="0" cx="0" id="paint0_radial_18_17387">
<stop stop-color="#395DE0"></stop>
<stop stop-color="#2C68A3" offset="1"></stop>
</radialGradient>
<radialGradient gradientTransform="translate(27.5937 20.9813) rotate(108.743) scale(2.99062)" gradientUnits="userSpaceOnUse" r="1" cy="0" cx="0" id="paint1_radial_18_17387">
<stop stop-color="#3DB3F3" offset="0.248616"></stop>
<stop stop-color="#5B73F4" offset="1"></stop>
</radialGradient>
<radialGradient gradientTransform="translate(28.0937 21.6532) rotate(161.162) scale(1.4033 0.889718)" gradientUnits="userSpaceOnUse" r="1" cy="0" cx="0" id="paint2_radial_18_17387">
<stop stop-color="#5FBEFF" offset="0.257996"></stop>
<stop stop-opacity="0" stop-color="#5FBEFF" offset="1"></stop>
</radialGradient>
<radialGradient gradientTransform="translate(8.65625 13.5594) rotate(15.9454) scale(3.18505 7.94974)" gradientUnits="userSpaceOnUse" r="1" cy="0" cx="0" id="paint3_radial_18_17387">
<stop stop-color="#FBC96E"></stop>
<stop stop-color="#FAC567" offset="1"></stop>
</radialGradient>
<radialGradient gradientTransform="translate(10.5312 14.2469) rotate(-156.753) scale(2.41481 7.26267)" gradientUnits="userSpaceOnUse" r="1" cy="0" cx="0" id="paint4_radial_18_17387">
<stop stop-opacity="0" stop-color="#D89F3A" offset="0.765376"></stop>
<stop stop-color="#DAA139" offset="0.91124"></stop>
</radialGradient>
<radialGradient gradientTransform="translate(23.875 15.4969) rotate(-125.455) scale(2.53202 2.59683)" gradientUnits="userSpaceOnUse" r="1" cy="0" cx="0" id="paint5_radial_18_17387">
<stop stop-color="#BF812A" offset="0.254227"></stop>
<stop stop-color="#CE9333" offset="1"></stop>
</radialGradient>
<radialGradient gradientTransform="translate(21.9219 14.2626) rotate(-23.0913) scale(2.19118 5.70837)" gradientUnits="userSpaceOnUse" r="1" cy="0" cx="0" id="paint6_radial_18_17387">
<stop stop-opacity="0" stop-color="#E9BB61" offset="0.734364"></stop>
<stop stop-color="#E9BB61" offset="0.929116"></stop>
</radialGradient>
<radialGradient gradientTransform="translate(23.2188 14.8876) rotate(-142.922) scale(3.4469 5.81507)" gradientUnits="userSpaceOnUse" r="1" cy="0" cx="0" id="paint7_radial_18_17387">
<stop stop-opacity="0" stop-color="#C18739" offset="0.772711"></stop>
<stop stop-color="#C18739" offset="0.948485"></stop>
</radialGradient>
<linearGradient gradientUnits="userSpaceOnUse" y2="24.7001" x2="5.5403" y1="20.5799" x1="23.2057" id="paint8_linear_18_17387">
<stop stop-color="#FFBC5D"></stop>
<stop stop-color="#FCAD6A" offset="0.303505"></stop>
<stop stop-color="#CB7547" offset="1"></stop>
</linearGradient>
<radialGradient gradientTransform="translate(12.1326 31.8589) rotate(-69.4212) scale(11.0026 21.4146)" gradientUnits="userSpaceOnUse" r="1" cy="0" cx="0" id="paint9_radial_18_17387">
<stop stop-color="#F67B4E"></stop>
<stop stop-opacity="0" stop-color="#F67B4E" offset="1"></stop>
</radialGradient>
<linearGradient gradientUnits="userSpaceOnUse" y2="23.7157" x2="8" y1="24.2782" x1="5.28125" id="paint10_linear_18_17387">
<stop stop-color="#C2794C"></stop>
<stop stop-opacity="0" stop-color="#E07648" offset="1"></stop>
</linearGradient>
<linearGradient gradientUnits="userSpaceOnUse" y2="24.9657" x2="22" y1="26.0282" x1="26.625" id="paint11_linear_18_17387">
<stop stop-color="#FFBB5B" offset="0.128534"></stop>
<stop stop-opacity="0" stop-color="#FFBB5B" offset="1"></stop>
</linearGradient>
<linearGradient gradientUnits="userSpaceOnUse" y2="27.6844" x2="17.4375" y1="28.8719" x1="17.4375" id="paint12_linear_18_17387">
<stop stop-color="#FF6F8C" offset="0.184212"></stop>
<stop stop-opacity="0" stop-color="#FF7A6A" offset="1"></stop>
</linearGradient>
<radialGradient gradientTransform="translate(28.0625 12.4032) rotate(113.385) scale(2.51945 2.08843)" gradientUnits="userSpaceOnUse" r="1" cy="0" cx="0" id="paint13_radial_18_17387">
<stop stop-color="#DD9049" offset="0.377231"></stop>
<stop stop-opacity="0" stop-color="#F8BF60" offset="1"></stop>
</radialGradient>
<radialGradient gradientTransform="translate(4.04688 12.5438) rotate(64.2171) scale(2.04759 1.11998)" gradientUnits="userSpaceOnUse" r="1" cy="0" cx="0" id="paint14_radial_18_17387">
<stop stop-color="#D7783D" offset="0.195602"></stop>
<stop stop-opacity="0" stop-color="#D7783D" offset="1"></stop>
</radialGradient>
<radialGradient gradientTransform="translate(16 8.83289) rotate(76.0568) scale(1.1672 2.55602)" gradientUnits="userSpaceOnUse" r="1" cy="0" cx="0" id="paint15_radial_18_17387">
<stop stop-color="#D48C33" offset="0.382465"></stop>
<stop stop-opacity="0" stop-color="#FEB16A" offset="1"></stop>
</radialGradient>
<radialGradient gradientTransform="translate(22.0312 23.0595) rotate(-51.5819) scale(2.31334 1.4927)" gradientUnits="userSpaceOnUse" r="1" cy="0" cx="0" id="paint16_radial_18_17387">
<stop stop-color="#FF196C"></stop>
<stop stop-color="#FF1F4A" offset="1"></stop>
</radialGradient>
<radialGradient gradientTransform="translate(23.625 21.8407) rotate(149.744) scale(1.73656 1.09996)" gradientUnits="userSpaceOnUse" r="1" cy="0" cx="0" id="paint17_radial_18_17387">
<stop stop-color="#FF5873" offset="0.222789"></stop>
<stop stop-opacity="0" stop-color="#FF5873" offset="1"></stop>
</radialGradient>
<radialGradient gradientTransform="translate(9.81261 23.122) rotate(-104.281) scale(1.77356 1.69812)" gradientUnits="userSpaceOnUse" r="1" cy="0" cx="0" id="paint18_radial_18_17387">
<stop stop-color="#F6196C"></stop>
<stop stop-color="#E42047" offset="1"></stop>
</radialGradient>
<radialGradient gradientTransform="translate(10.547 22.0439) rotate(155.726) scale(0.874163 0.765693)" gradientUnits="userSpaceOnUse" r="1" cy="0" cx="0" id="paint19_radial_18_17387">
<stop stop-color="#FE536F"></stop>
<stop stop-opacity="0" stop-color="#FE536F" offset="1"></stop>
</radialGradient>
<radialGradient gradientTransform="translate(4.65625 10.9745) rotate(135.198) scale(2.97287 3.09287)" gradientUnits="userSpaceOnUse" r="1" cy="0" cx="0" id="paint20_radial_18_17387">
<stop stop-color="#E7C04E" offset="0.172433"></stop>
<stop stop-color="#D9972A" offset="1"></stop>
</radialGradient>
<radialGradient gradientTransform="translate(3.21875 13.4969) rotate(-71.3305) scale(1.65959 1.79772)" gradientUnits="userSpaceOnUse" r="1" cy="0" cx="0" id="paint21_radial_18_17387">
<stop stop-color="#DF8089" offset="0.0645976"></stop>
<stop stop-opacity="0" stop-color="#DF8089" offset="1"></stop>
</radialGradient>
<radialGradient gradientTransform="translate(4.76562 11.0395) rotate(141.017) scale(1.40706 0.727129)" gradientUnits="userSpaceOnUse" r="1" cy="0" cx="0" id="paint22_radial_18_17387">
<stop stop-color="#FFDE71"></stop>
<stop stop-opacity="0" stop-color="#FFDE71" offset="1"></stop>
</radialGradient>
<radialGradient gradientTransform="translate(4.01562 12.0139) rotate(180) scale(1.875 1.94872)" gradientUnits="userSpaceOnUse" r="1" cy="0" cx="0" id="paint23_radial_18_17387">
<stop stop-opacity="0" stop-color="#E1AD3D" offset="0.487603"></stop>
<stop stop-color="#B9894B" offset="1"></stop>
</radialGradient>
<radialGradient gradientTransform="translate(10.7031 10.0126) rotate(136.302) scale(2.91757 3.03227)" gradientUnits="userSpaceOnUse" r="1" cy="0" cx="0" id="paint24_radial_18_17387">
<stop stop-color="#E7C04E" offset="0.172433"></stop>
<stop stop-color="#D9972A" offset="1"></stop>
</radialGradient>
<radialGradient gradientTransform="translate(10.8125 10.0751) rotate(142.093) scale(1.38624 0.710131)" gradientUnits="userSpaceOnUse" r="1" cy="0" cx="0" id="paint25_radial_18_17387">
<stop stop-color="#FFDE71"></stop>
<stop stop-opacity="0" stop-color="#FFDE71" offset="1"></stop>
</radialGradient>
<radialGradient gradientTransform="translate(9.57813 12.4344) rotate(-76.7989) scale(1.29998 1.7338)" gradientUnits="userSpaceOnUse" r="1" cy="0" cx="0" id="paint26_radial_18_17387">
<stop stop-color="#E4A122"></stop>
<stop stop-opacity="0" stop-color="#E4A122" offset="1"></stop>
</radialGradient>
<radialGradient gradientTransform="translate(10.0625 11.0126) rotate(180) scale(1.875)" gradientUnits="userSpaceOnUse" r="1" cy="0" cx="0" id="paint27_radial_18_17387">
<stop stop-opacity="0" stop-color="#E1AD3D" offset="0.487603"></stop>
<stop stop-color="#B9894B" offset="1"></stop>
</radialGradient>
<radialGradient gradientTransform="translate(23.4688 10.4657) rotate(136.32) scale(2.39817 2.49246)" gradientUnits="userSpaceOnUse" r="1" cy="0" cx="0" id="paint28_radial_18_17387">
<stop stop-color="#F0C950" offset="0.172433"></stop>
<stop stop-color="#C8861F" offset="1"></stop>
</radialGradient>
<radialGradient gradientTransform="translate(23.6719 10.2001) rotate(147.14) scale(1.33929 0.68608)" gradientUnits="userSpaceOnUse" r="1" cy="0" cx="0" id="paint29_radial_18_17387">
<stop stop-color="#FFDE71" offset="0.183948"></stop>
<stop stop-opacity="0" stop-color="#FFDE71" offset="1"></stop>
</radialGradient>
<radialGradient gradientTransform="translate(17.1251 21.5595) rotate(138.155) scale(2.81059)" gradientUnits="userSpaceOnUse" r="1" cy="0" cx="0" id="paint30_radial_18_17387">
<stop stop-color="#5FBFFF"></stop>
<stop stop-color="#3E94FF" offset="1"></stop>
</radialGradient>
<linearGradient gradientUnits="userSpaceOnUse" y2="17.1532" x2="22.5547" y1="9.1532" x1="16.2109" id="paint31_linear_18_17387">
<stop stop-color="#FFD678"></stop>
<stop stop-opacity="0" stop-color="#FFD678" offset="1"></stop>
</linearGradient>
<radialGradient gradientTransform="translate(22.5547 16.3719) rotate(-34.6679) scale(6.49725 1.74022)" gradientUnits="userSpaceOnUse" r="1" cy="0" cx="0" id="paint32_radial_18_17387">
<stop stop-color="#FFD175" offset="0.289296"></stop>
<stop stop-opacity="0" stop-color="#FFD175" offset="1"></stop>
</radialGradient>
<radialGradient gradientTransform="translate(17.4375 6.6532) rotate(125.606) scale(3.43521 2.91657)" gradientUnits="userSpaceOnUse" r="1" cy="0" cx="0" id="paint33_radial_18_17387">
<stop stop-color="#F3D154" offset="0.376296"></stop>
<stop stop-color="#CC9848" offset="1"></stop>
</radialGradient>
<radialGradient gradientTransform="translate(15.6562 9.44617) rotate(-79.3128) scale(1.83257 2.17841)" gradientUnits="userSpaceOnUse" r="1" cy="0" cx="0" id="paint34_radial_18_17387">
<stop stop-color="#E78F5E"></stop>
<stop stop-opacity="0" stop-color="#E78F5E" offset="1"></stop>
</radialGradient>
<radialGradient gradientTransform="translate(16.75 8.24695) rotate(-146.725) scale(3.58831 4.29179)" gradientUnits="userSpaceOnUse" r="1" cy="0" cx="0" id="paint35_radial_18_17387">
<stop stop-opacity="0" stop-color="#E9C251" offset="0.557117"></stop>
<stop stop-color="#B49858" offset="1"></stop>
</radialGradient>
<radialGradient gradientTransform="translate(18.0625 6.8407) rotate(156.06) scale(1.9831 1.52608)" gradientUnits="userSpaceOnUse" r="1" cy="0" cx="0" id="paint36_radial_18_17387">
<stop stop-color="#FFED77"></stop>
<stop stop-opacity="0" stop-color="#FFED77" offset="1"></stop>
</radialGradient>
<radialGradient gradientTransform="translate(29.6563 10.9745) rotate(135.198) scale(2.97287 3.09287)" gradientUnits="userSpaceOnUse" r="1" cy="0" cx="0" id="paint37_radial_18_17387">
<stop stop-color="#F8CB54" offset="0.172433"></stop>
<stop stop-color="#EAA34B" offset="1"></stop>
</radialGradient>
<radialGradient gradientTransform="translate(28.2187 13.4969) rotate(-71.3305) scale(1.65959 2.24326)" gradientUnits="userSpaceOnUse" r="1" cy="0" cx="0" id="paint38_radial_18_17387">
<stop stop-color="#F1907C" offset="0.159577"></stop>
<stop stop-opacity="0" stop-color="#F1907C" offset="1"></stop>
</radialGradient>
<radialGradient gradientTransform="translate(29.7656 11.0395) rotate(141.017) scale(1.40706 0.727129)" gradientUnits="userSpaceOnUse" r="1" cy="0" cx="0" id="paint39_radial_18_17387">
<stop stop-color="#FFDE71"></stop>
<stop stop-opacity="0" stop-color="#FFDE71" offset="1"></stop>
</radialGradient>
<radialGradient gradientTransform="translate(29.0156 12.0139) rotate(180) scale(1.875 1.94872)" gradientUnits="userSpaceOnUse" r="1" cy="0" cx="0" id="paint40_radial_18_17387">
<stop stop-opacity="0" stop-color="#E0A444" offset="0.487603"></stop>
<stop stop-color="#C6924D" offset="1"></stop>
</radialGradient>
</defs>
</svg>
